<svg width="779" height="261" viewBox="0 0 779 261" fill="none" xmlns="http://www.w3.org/2000/svg">
<g clip-path="url(#clip0_157_3436)">
<path d="M487.381 127.338C499.844 115.882 513.436 106.36 520.13 90.5281C521.258 87.8677 523.354 86.6029 526.174 86.85C527.938 87.0099 529.803 87.2716 531.379 87.9985C539.36 91.6911 545.549 97.5063 550.118 105.008C552.981 109.704 551.896 116.304 545.303 119.371C531.119 125.986 517.412 133.633 503.488 140.8C484.07 150.788 464.623 160.717 445.204 170.705C443.744 171.461 442.37 172.377 440.953 173.206C440.953 173.54 440.953 173.874 440.953 174.209C442.746 174.616 444.539 175.066 446.361 175.401C463.307 178.643 475.785 186.886 479.067 206.09C481.221 218.666 477.101 229.613 470.334 239.702C464.059 249.05 454.921 254.778 444.38 258.282C429.69 263.181 415.462 261.175 401.698 254.851C391.143 249.995 385.518 241.301 383.422 229.991C381.6 220.192 383.349 210.67 386.964 201.831C389.914 194.62 395.032 188.485 402.001 184.153C418.065 174.194 433.999 164.018 449.947 153.87C456.815 149.494 459.692 143.286 458.709 135.014C455.673 109.733 452.868 84.4222 449.903 59.1407C449.354 54.503 448.53 49.909 447.778 45.3005C445.985 34.3534 439.551 26.3721 431.107 19.9463C428.331 17.8383 424.716 16.8061 421.42 15.4105C418.051 13.9712 417.443 11.994 420.538 10.075C423.849 8.01064 427.68 6.45508 431.497 5.5828C440.679 3.4748 449.903 3.99816 459.085 6.22247C471.953 9.3336 478.518 18.7833 482.523 30.2828C484.316 35.4292 485.038 41.1863 485.125 46.6816C485.429 66.1043 485.14 85.5271 485.313 104.935C485.371 111.695 486.123 118.441 486.586 125.187C486.615 125.666 486.918 126.132 487.381 127.353V127.338ZM426.119 238.088C439.551 238.481 447.474 233.175 451.436 221.995C455.326 211.033 450.843 198.313 441.3 193.282C432.105 188.427 416.981 192.352 410.619 200.944C407.351 205.349 406.816 210.423 406.151 215.511C405.197 222.824 408.016 229.046 413.265 233.582C417.024 236.838 422.056 238.481 426.104 238.088H426.119Z" fill="#E5FD51"/>
<path d="M376.336 64.1858C381.513 65.6977 386.009 66.599 390.159 68.3436C395.162 70.4516 400.179 72.8504 404.632 75.9324C409.693 79.4361 411.5 84.9314 411.92 91.1246C413.134 109.137 403.042 120.549 389.32 129.127C381.079 134.288 371.406 136.134 361.473 135.102C358.234 134.768 354.937 134.753 351.742 134.201C335.215 131.351 326.063 118.427 328.507 101.737C330.083 90.9792 333.9 80.9771 339.235 71.6583C344.281 62.8483 349.848 54.3145 355.588 45.9406C357.67 42.8876 358.422 40.1836 357.164 36.8253C356.499 35.0517 355.66 33.2781 355.342 31.4317C355.096 29.9925 355.111 28.1025 355.877 27.0558C356.369 26.3871 358.465 26.736 359.795 26.9395C360.677 27.0849 361.603 27.6373 362.297 28.2625C369.194 34.4702 376.38 40.4017 382.8 47.0746C387.426 51.8866 386.718 54.6052 381.686 59.0975C379.995 60.6094 378.375 62.2231 376.336 64.1712V64.1858ZM375.107 74.5804C372.447 75.6417 369.526 76.2813 367.184 77.8224C360.547 82.1692 357.54 89.1184 355.313 96.3583C353.52 102.188 356.369 107.131 362.123 109.064C369.223 111.463 380.052 108.236 384.564 102.406C389.393 96.1402 389.364 87.4901 384.564 80.1048C382.38 76.7465 379.59 74.6822 375.107 74.5659V74.5804Z" fill="#E5FD51"/>
<path d="M737.892 0C744.818 0.71236 751.512 1.36657 757.874 4.01248C764.034 6.57116 768.849 10.7145 770.642 17.2711C772.912 25.6304 775.095 34.077 776.324 42.6398C778.869 60.4634 779.23 78.4759 778.898 96.4594C778.681 108.177 777.784 119.924 774.3 131.118C771.972 138.59 766.94 144.798 760.072 148.723C752.178 153.23 744.008 157.257 735.738 161.052C721.149 167.754 706.068 173.496 693.099 183.295C689.05 186.348 685.146 189.59 681.286 192.875C674.649 198.501 671.454 205.93 670.731 214.479C670.471 217.604 670.543 220.817 670.89 223.943C671.598 230.412 678.264 235.021 684.467 229.06C689.455 224.248 694.212 219.073 698.333 213.504C703.639 206.308 708.989 199.243 716.045 193.704C721.756 189.226 728.031 186.348 735.535 186.624C744.861 186.958 750.443 191.32 753.248 200.377C756.11 209.623 756.674 219.102 756.616 228.668C756.616 230.572 756.978 231.662 758.742 232.68C765.581 236.649 768.531 247.262 764.959 254.298C762.443 259.27 756.241 261.901 749.691 260.782C738.745 258.907 729.26 253.615 720.021 247.785C718.778 247 717.505 246.215 716.349 245.314C711.62 241.635 709.582 242.537 705.056 246.433C701.702 249.326 698.477 252.466 694.834 254.938C681.488 263.966 668.779 262.977 658.311 250.823C645.428 235.893 642.608 218.171 650.85 201.423C656.633 189.662 665.699 181.346 676.543 174.615C687.012 168.117 698.087 163.072 709.784 159.118C719.342 155.876 729.246 153.245 737.719 147.226C741.984 144.187 744.688 140.538 744.688 135.174C744.673 116.071 744.804 96.9827 744.529 77.8798C744.384 67.2817 743.459 56.698 743.097 46.0999C742.721 35.4872 738.109 27.186 729.969 20.7166C726.253 17.7654 722.277 15.1195 718.619 12.1101C717.375 11.0925 715.871 9.24614 716.002 7.93773C716.218 5.90241 717.39 3.75079 720.021 3.28558C725.993 2.23885 731.95 1.13396 737.921 0.0436139L737.892 0ZM729.304 230.441C729.304 225.527 729.275 220.875 729.318 216.209C729.347 213.795 729.231 210.684 726.744 210.495C725.212 210.379 722.841 213.025 721.901 214.944C720.007 218.811 718.864 223.056 717.332 227.127C716.479 229.38 717.332 230.368 719.515 230.427C722.653 230.499 725.805 230.441 729.304 230.441Z" fill="#E5FD51"/>
<path d="M692.145 138.707C686.217 138.503 682.4 135.465 678.814 131.874C671.31 124.358 662.577 119.153 651.935 117.423C647.424 116.696 643.404 117.859 639.601 119.982C632.517 123.936 625.634 128.283 618.419 131.976C615.311 133.575 611.638 134.316 608.124 134.796C603.339 135.45 600.36 131.728 600.852 126.916C601.69 118.586 607.344 113.454 612.766 108.191C626.632 94.7293 641.033 81.7906 654.321 67.776C661.767 59.9255 662.837 49.5744 659.135 39.1362C658.326 36.8537 656.851 34.7748 656.258 32.4487C655.81 30.7042 655.622 28.2327 656.547 27.0115C657.241 26.0811 660.278 25.8194 661.535 26.5463C672.264 32.7685 682.457 39.7904 690.063 49.8507C691.798 52.1331 692.824 55.0698 693.692 57.8611C694.588 60.725 693.822 63.4727 691.812 65.8569C684.048 75.074 676.443 84.451 668.534 93.5372C665.078 97.5061 666.408 98.6982 670.139 100.196C677.556 103.176 684.887 106.461 691.971 110.169C695.355 111.942 698.362 114.69 701.037 117.481C704.927 121.523 707.066 126.669 704.522 132.034C702.093 137.151 696.627 137.849 692.13 138.692L692.145 138.707Z" fill="#E5FD51"/>
<path d="M138.226 260.404C127.469 260.404 116.712 260.738 105.969 260.273C99.6213 259.997 93.4329 258.02 88.7337 253.295C82.8634 247.378 80.9838 240.007 81.244 231.779C81.5621 222.155 86.6083 216.092 94.792 212.08C100.764 209.143 106.692 206.119 112.707 203.284C122.22 198.792 130.072 192.134 137.344 184.647C144.299 177.509 145.947 168.713 145.832 159.162C145.557 136.453 145.716 113.745 145.224 91.0514C144.921 77.3421 142.969 63.7491 140.106 50.3015C137.402 37.5808 129.074 29.2651 119.025 22.1996C117.651 21.2256 116.162 20.3388 115.02 19.1321C112.62 16.6171 113.357 13.2152 116.668 12.3865C128.958 9.30446 141.364 7.71983 153.856 11.2089C162.387 13.5932 168.547 18.9867 171.048 27.506C173.636 36.316 175.559 45.3441 177.338 54.3576C181.299 74.5508 183.005 95.0057 182.355 115.548C182.008 126.698 180.663 137.864 179.174 148.942C177.482 161.531 169.862 170.908 161.086 179.297C150.256 189.648 138.14 198.283 125.025 205.552C121.917 207.282 119.083 209.565 116.263 211.775C111.116 215.787 109.829 221.515 109.786 227.65C109.771 230.543 112.273 233 115.324 233.015C134.323 233.058 153.321 233.262 172.306 232.84C175.747 232.767 179.188 230.18 182.514 228.508C186.317 226.589 191.782 227.694 195.05 231.285C197.464 233.945 197.262 238.03 194.587 241.825C192.953 244.136 191.363 246.506 189.83 248.89C184.249 257.555 175.733 260.535 166.118 260.855C156.849 261.16 147.552 260.927 138.27 260.927C138.27 260.753 138.27 260.579 138.27 260.419L138.226 260.404Z" fill="#E5FD51"/>
<path d="M65.2384 118.529C76.0391 120.942 85.4519 125.347 94.1995 131.148C97.1635 133.11 99.9252 135.553 102.282 138.213C106.591 143.069 107.429 149.436 104.74 153.129C101.66 157.36 92.7536 159.802 87.6641 157.592C85.6687 156.72 83.63 155.557 82.1119 154.03C75.5331 147.416 67.5373 142.894 59.6428 138.213C48.2058 131.424 52.1531 132.863 41.3957 139.303C32.9373 144.363 24.1318 148.826 15.3698 153.347C13.5624 154.277 11.3068 154.408 9.2392 154.67C5.53773 155.135 2.40016 153.681 0.853059 150.396C-0.766333 146.921 0.0433627 143.258 2.58812 140.365C4.25089 138.489 6.20284 136.774 8.31383 135.407C24.4065 124.925 37.9256 111.565 50.0566 96.8089C53.8303 92.2149 56.8089 86.8068 59.3681 81.4132C64.0238 71.6146 62.3032 61.9468 57.1992 52.7734C56.1437 50.8689 55.2473 49.0662 56.751 47.2344C58.3559 45.2718 60.6549 45.5771 62.5635 46.6384C73.8125 52.9188 84.2518 60.3041 91.6258 71.1494C96.6285 78.5056 95.4285 83.1723 88.6473 90.8047C80.7238 99.7165 73.2486 109.006 65.2528 118.543L65.2384 118.529Z" fill="#E5FD51"/>
<path d="M243.891 182.524C243.92 174.078 249.963 167.943 258.176 168.015C266.013 168.088 271.912 174.499 271.84 182.815C271.753 190.825 265.637 197.048 257.872 197.019C249.877 196.975 243.862 190.738 243.891 182.524Z" fill="#E5FD51"/>
<path d="M257.859 97.1862C249.877 97.1426 243.863 90.9204 243.877 82.7064C243.891 74.318 250.022 68.0958 258.162 68.2266C265.999 68.3429 271.927 74.7687 271.812 83.0263C271.71 91.0512 265.609 97.2444 257.844 97.2008L257.859 97.1862Z" fill="#E5FD51"/>
</g>
<defs>
<clipPath id="clip0_157_3436">
<rect width="779" height="261" fill="white"/>
</clipPath>
</defs>
</svg>
