<svg width="529" height="292" viewBox="0 0 529 292" fill="none" xmlns="http://www.w3.org/2000/svg">
<mask id="path-1-outside-1_595_1566" maskUnits="userSpaceOnUse" x="0" y="0" width="529" height="292" fill="black">
<rect fill="white" width="529" height="292"/>
<path fill-rule="evenodd" clip-rule="evenodd" d="M25 145.998C77.6699 69.8438 165.299 20 264.499 20C363.699 20 451.329 69.8438 503.999 145.998C451.329 222.153 363.699 271.996 264.499 271.996C165.299 271.996 77.6699 222.153 25 145.998Z"/>
</mask>
<path d="M25 145.998L8.55087 134.622L0.682608 145.998L8.55087 157.375L25 145.998ZM503.999 145.998L520.448 157.375L528.316 145.998L520.448 134.622L503.999 145.998ZM41.4491 157.375C90.5632 86.3617 172.174 40 264.499 40V0C158.424 0 64.7766 53.326 8.55087 134.622L41.4491 157.375ZM264.499 40C356.824 40 438.435 86.3617 487.55 157.375L520.448 134.622C464.222 53.326 370.574 0 264.499 0V40ZM487.55 134.622C438.435 205.635 356.824 251.996 264.499 251.996V291.996C370.574 291.996 464.222 238.67 520.448 157.375L487.55 134.622ZM264.499 251.996C172.174 251.996 90.5632 205.635 41.4491 134.622L8.55087 157.375C64.7766 238.67 158.424 291.996 264.499 291.996V251.996Z" fill="#E5FD51" mask="url(#path-1-outside-1_595_1566)"/>
<path fill-rule="evenodd" clip-rule="evenodd" d="M263.5 287C341.648 287 405 223.648 405 145.5C405 67.3517 341.648 4 263.5 4C185.352 4 122 67.3517 122 145.5C122 223.648 185.352 287 263.5 287ZM264 198C292.719 198 316 174.719 316 146C316 117.281 292.719 94 264 94C235.281 94 212 117.281 212 146C212 174.719 235.281 198 264 198Z" fill="#E5FD51"/>
</svg>
