<svg width="193" height="261" viewBox="0 0 193 261" fill="none" xmlns="http://www.w3.org/2000/svg">
<path d="M85.3912 57.3809C71.4661 54.8359 58.1892 53.1553 45.3445 49.7701C37.5176 47.7053 30.0268 43.5758 23.0403 39.3022C15.8856 34.9086 16.822 29.3385 24.1687 26.0973C30.2189 23.4324 36.7733 21.3916 43.2797 20.4313C68.0328 16.7579 92.1857 19.687 115.114 29.7707C132.785 37.5496 135.402 46.0007 123.181 60.7421C106.303 81.1256 87.9601 100.261 67.9848 122.445H125.726C126.11 124.149 126.518 125.878 126.902 127.583C119.772 131.496 112.641 135.41 105.271 139.467C108.968 171.351 83.8306 201.578 50.1702 203.138C44.5522 203.403 38.646 197.4 32.8599 194.303C36.4132 189.814 39.4623 184.724 43.6638 180.954C52.9553 172.623 63.015 165.157 72.2584 156.777C73.963 155.241 74.2271 150.799 73.4108 148.254C73.0026 147.006 68.1769 145.829 66.1601 146.646C52.0669 152.216 38.1418 158.218 24.2887 164.388C21.8878 165.445 20.4233 169.046 18.0704 169.646C13.2206 170.895 5.4898 173.127 3.5931 170.919C0.567989 167.413 -1.25668 158.674 1.02416 155.601C6.93033 147.63 14.3971 139.779 22.9682 135.049C46.3768 122.157 77.7324 84.8229 85.3432 57.3809H85.3912Z" fill="#E5FD51"/>
<path d="M132.739 258.455C134.612 254.974 136.676 251.565 138.309 247.963C143.615 236.295 152.21 224.891 153.386 212.766C158.548 159.083 161.045 105.087 152.282 51.547C150.217 38.9423 141.862 27.3941 136.58 15.2696C134.948 11.5242 133.987 7.49076 132.715 3.57732C136.628 2.30485 140.494 0 144.407 0C150.649 0 157.036 0.912336 163.086 2.47291C188.319 8.9793 192.953 14.4773 192.569 40.2148C191.921 85.7595 190.672 131.304 189.592 176.849C188.775 211.35 171.921 236.895 144.767 256.486C141.934 258.527 138.357 259.511 135.116 261C134.323 260.16 133.531 259.295 132.739 258.455Z" fill="#E5FD51"/>
</svg>
