<svg width="178" height="261" viewBox="0 0 178 261" fill="none" xmlns="http://www.w3.org/2000/svg">
<path d="M114.25 78.805C112.743 78.805 111.26 78.7344 109.753 78.805C85.549 80.0529 76.649 75.3675 70.6686 58.1796C63.8877 38.7079 70.1271 13.2323 84.8191 2.91958C87.88 0.776984 92.5419 0.918254 96.4739 0C96.6152 3.90847 97.816 8.17011 96.6623 11.6312C93.0599 22.3677 86.9382 33.6458 95.5321 43.6288C103.891 53.3765 115.851 48.3849 126.164 46.1717C136.736 43.9114 146.978 40.1913 157.338 36.9656C164.519 34.7524 171.559 34.2579 176.032 41.4156C180.859 49.1384 174.737 53.8474 169.652 57.8971C149.662 73.7664 129.437 89.3532 107.093 106.8C114.415 106.4 119.524 106.117 124.657 105.858C131.25 105.505 137.842 104.705 144.411 104.94C169.157 105.764 173.819 110.803 173.749 135.831C173.749 142.047 173.725 148.286 173.301 154.502C172.477 167.193 167.792 177.553 156.419 184.687C143.587 192.739 131.297 201.616 118.842 210.257C115.169 212.799 111.708 215.648 108.152 218.38C108.317 219.416 108.505 220.475 108.67 221.511C119.148 222.947 129.649 224.148 140.056 225.891C149.168 227.421 158.515 228.669 167.109 231.8C171.017 233.213 175.844 238.911 175.773 242.584C175.703 246.257 170.758 251.484 166.756 253.203C148.861 260.831 130.426 265.305 111.896 254.874C101.772 249.176 90.7996 244.208 82.3705 236.533C77.2141 231.824 74.2474 222.735 73.753 215.366C73.1408 206.537 81.1461 202.934 88.916 200.109C100.547 195.871 112.178 191.421 123.268 185.958C139.02 178.212 147.402 160.059 144.364 142.989C142.434 132.087 134.028 132.747 126.305 133.1C91.9062 134.701 59.6496 143.201 31.1837 163.496C28.9705 165.074 26.7808 166.746 24.3792 167.97C17.5747 171.431 10.9115 179.625 3.00034 170.678C-2.53273 164.32 0.0101319 147.509 7.1678 141.741C11.0056 138.656 15.7382 136.514 20.3294 134.512C33.4675 128.815 47.5474 124.741 59.7908 117.56C78.7916 106.423 96.6152 93.2617 114.933 80.9712C114.698 80.2413 114.462 79.5114 114.227 78.7815L114.25 78.805Z" fill="#E5FD51"/>
</svg>
