<svg width="190" height="261" viewBox="0 0 190 261" fill="none" xmlns="http://www.w3.org/2000/svg">
<path d="M143.888 154.397C116.019 146.995 91.1577 146.572 66.6491 153.903C48.485 159.331 31.0023 167.039 13.0261 173.172C1.53552 177.096 -1.63674 173.501 0.73658 161.329C2.85142 150.543 7.80954 142.577 19.0182 139.687C32.8586 136.115 46.5816 131.956 60.563 129.089C88.4789 123.379 111.977 110.079 131.763 89.8235C137.238 84.2074 136.791 79.6252 128.966 76.8054C115.549 71.9648 102.954 70.7429 90.8053 81.2231C82.9569 87.9906 73.5576 93.0427 64.5577 98.3298C62.2549 99.6692 57.3203 100.257 56.1924 98.9643C54.336 96.8024 52.9731 91.8913 54.2185 89.753C58.7067 81.9281 62.8424 72.5523 69.8683 67.8056C90.4293 53.8712 102.766 27.1537 97.2908 3.23251C97.0558 2.24558 97.7137 1.07067 97.9487 0.0132505C112.259 -0.597703 137.637 20.0572 137.449 33.2867C137.355 38.7148 132.914 44.0959 129.977 50.4874C135.71 51.9678 142.924 52.8843 149.292 55.7275C155.848 58.6648 163.297 62.2835 167.057 67.8291C170.041 72.2233 169.595 80.5182 167.668 86.0402C166.611 89.0715 159.326 89.9409 154.885 91.7973C152.582 92.7607 149.527 93.1367 148.141 94.8521C140.504 104.392 133.29 114.262 126.476 123.308C141.068 127.021 157.094 129.911 172.133 135.434C179.088 137.995 188.628 145.373 189.098 151.177C189.944 161.54 178.83 163.561 169.759 165.488C142.266 171.362 124.079 190.678 106.479 210.534C100.698 217.066 104.058 221.226 111.39 222.706C120.507 224.539 129.812 225.455 138.883 227.5C149.034 229.779 159.42 231.894 168.984 235.818C177.984 239.507 177.96 246.063 169.689 251.256C158.245 258.447 145.791 262.371 132.045 260.562C112.964 258.047 96.5153 249.423 82.0404 237.298C70.7378 227.852 69.8918 208.889 81.7115 199.02C97.9957 185.391 116.066 173.9 133.408 161.517C135.898 159.731 138.46 158.086 143.958 154.373L143.888 154.397Z" fill="#E5FD51"/>
</svg>
